<?xml version="1.0" encoding="utf-8"?>
<!-- Generator: Adobe Illustrator 16.0.0, SVG Export Plug-In . SVG Version: 6.00 Build 0)  -->
<!DOCTYPE svg PUBLIC "-//W3C//DTD SVG 1.1//EN" "http://www.w3.org/Graphics/SVG/1.1/DTD/svg11.dtd">
<svg version="1.1" id="Layer_1" xmlns="http://www.w3.org/2000/svg" xmlns:xlink="http://www.w3.org/1999/xlink" x="0px" y="0px"
	 width="72px" height="72px" viewBox="0 0 72 72" enable-background="new 0 0 72 72" xml:space="preserve">
<g>
	<path fill="#231F20" d="M21.697,34.235c-8.744,2.971-14.163,13.212-16.602,19.51c0.585,1.014,1.218,1.997,1.894,2.945
		c1.496-5.91,3.9-10.466,6.211-13.827C17.635,36.542,21.704,34.332,21.697,34.235z"/>
	<path fill="#231F20" d="M50.301,37.796c8.749-2.98,14.168-13.228,16.607-19.534c-0.586-1.016-1.217-1.999-1.896-2.949
		c-1.492,5.916-3.9,10.478-6.21,13.847C54.365,35.486,50.299,37.7,50.301,37.796z"/>
	<path fill="#231F20" d="M21.643,37.249C13.709,41.971,10.535,53.112,9.46,59.78c0.78,0.873,1.602,1.704,2.462,2.492
		c0.234-6.091,1.641-11.046,3.198-14.817C18.15,40.35,21.669,37.341,21.643,37.249z"/>
	<path fill="#231F20" d="M50.363,34.783C58.3,30.05,61.471,18.9,62.546,12.224c-0.784-0.872-1.606-1.706-2.468-2.497
		c-0.231,6.1-1.637,11.062-3.196,14.84C53.857,31.68,50.34,34.693,50.363,34.783z"/>
	<path fill="#231F20" d="M17.96,51.544c1.487-7.579,4.3-11.251,4.256-11.338c-6.779,6.271-7.566,17.825-7.231,24.572
		c0.941,0.691,1.919,1.334,2.929,1.93C16.874,60.696,17.218,55.555,17.96,51.544z"/>
	<path fill="#231F20" d="M54.048,20.477c-1.479,7.583-4.294,11.263-4.25,11.348c6.777-6.281,7.561-17.848,7.221-24.599
		c-0.941-0.689-1.921-1.334-2.929-1.931C55.131,11.309,54.788,16.456,54.048,20.477z"/>
	<path fill="#231F20" d="M23.389,42.98c-5.328,7.543-3.691,19.012-1.962,25.543c1.06,0.476,2.151,0.902,3.266,1.274
		c-2.266-5.667-2.999-10.764-3.106-14.848C21.46,47.231,23.45,43.055,23.389,42.98z"/>
	<path fill="#231F20" d="M48.63,29.049c5.323-7.555,3.685-19.035,1.949-25.568c-1.062-0.479-2.155-0.905-3.271-1.278
		c2.271,5.668,3.006,10.773,3.122,14.858C50.557,24.791,48.568,28.975,48.63,29.049z"/>
	<path fill="#231F20" d="M25.119,45.45c-3.645,8.484,0.342,19.365,3.389,25.396c1.133,0.241,2.285,0.428,3.456,0.56
		c-3.392-5.064-5.166-9.899-6.123-13.867C24.115,50.011,25.194,45.508,25.119,45.45z"/>
	<path fill="#231F20" d="M46.903,26.574c3.643-8.496-0.351-19.384-3.406-25.417c-1.134-0.243-2.289-0.431-3.46-0.562
		c3.396,5.071,5.18,9.91,6.139,13.881C47.908,22.01,46.833,26.515,46.903,26.574z"/>
	<path fill="#231F20" d="M30.54,59.179c-3.251-7.004-3.132-11.629-3.221-11.675c-1.797,9.057,4.359,18.87,8.596,24.134
		c0.028,0,0.057,0.002,0.085,0.002c1.152,0,2.292-0.058,3.413-0.166C35.044,67.223,32.3,62.859,30.54,59.179z"/>
	<path fill="#231F20" d="M41.476,12.831c3.262,7.009,3.146,11.64,3.23,11.683c1.795-9.067-4.375-18.885-8.616-24.151
		c-0.03,0-0.061-0.003-0.09-0.003c-1.152,0-2.289,0.061-3.414,0.167C36.964,4.781,39.713,9.146,41.476,12.831z"/>
	<path fill="#231F20" d="M35.479,59.807c-4.64-6.172-5.484-10.72-5.576-10.746c0.122,9.235,8.191,17.555,13.429,21.821
		c1.152-0.242,2.287-0.537,3.396-0.888C41.562,66.745,37.97,63.045,35.479,59.807z"/>
	<path fill="#231F20" d="M36.54,12.198c4.647,6.178,5.493,10.732,5.588,10.758c-0.129-9.248-8.212-17.573-13.456-21.838
		c-1.154,0.241-2.286,0.537-3.396,0.887C30.447,5.257,34.045,8.959,36.54,12.198z"/>
	<path fill="#231F20" d="M32.748,50.043c2.041,9.004,11.66,15.466,17.672,18.551c1.072-0.477,2.116-1.001,3.13-1.577
		c-5.724-2.105-10.004-4.973-13.107-7.62C34.618,54.319,32.843,50.048,32.748,50.043z"/>
	<path fill="#231F20" d="M39.282,21.965C37.232,12.95,27.6,6.491,21.586,3.406c-1.074,0.476-2.119,1-3.134,1.576
		c5.73,2.106,10.016,4.977,13.127,7.625C37.408,17.683,39.184,21.96,39.282,21.965z"/>
	<path fill="#231F20" d="M35.742,50.413c3.864,8.382,14.613,12.698,21.129,14.469c0.949-0.688,1.864-1.417,2.735-2.191
		c-6.031-0.869-10.813-2.786-14.397-4.729C38.457,54.207,35.835,50.396,35.742,50.413z"/>
	<path fill="#231F20" d="M36.291,21.59C32.413,13.201,21.657,8.885,15.13,7.117c-0.948,0.686-1.862,1.418-2.737,2.192
		c6.04,0.869,10.828,2.783,14.418,4.729C33.569,17.792,36.198,21.604,36.291,21.59z"/>
	<path fill="#231F20" d="M49.574,55.564c-7.384-2.266-10.743-5.448-10.831-5.414c5.527,7.398,16.939,9.388,23.684,9.759
		c0.784-0.866,1.524-1.77,2.223-2.711C58.562,57.604,53.487,56.723,49.574,55.564z"/>
	<path fill="#231F20" d="M22.446,16.428c7.39,2.267,10.756,5.45,10.845,5.417c-5.542-7.401-16.967-9.387-23.719-9.757
		c-0.784,0.866-1.523,1.772-2.221,2.712C13.442,14.395,18.527,15.272,22.446,16.428z"/>
	<path fill="#231F20" d="M53.346,52.318c-7.693-0.684-11.641-3.099-11.72-3.045c6.942,6.084,18.517,5.659,25.194,4.621
		c0.585-1.007,1.124-2.046,1.608-3.114C62.562,52.443,57.413,52.636,53.346,52.318z"/>
	<path fill="#231F20" d="M18.674,19.675c7.697,0.679,11.65,3.095,11.73,3.041c-6.954-6.085-18.542-5.652-25.221-4.611
		c-0.588,1.008-1.126,2.048-1.613,3.117C9.444,19.556,14.599,19.359,18.674,19.675z"/>
	<path fill="#231F20" d="M44.258,47.812c8.062,4.512,19.301,1.687,25.615-0.718c0.358-1.103,0.667-2.231,0.923-3.379
		c-5.396,2.845-10.393,4.107-14.44,4.643C48.692,49.286,44.33,47.745,44.258,47.812z"/>
	<path fill="#231F20" d="M27.768,24.169c-8.073-4.508-19.321-1.672-25.637,0.736c-0.362,1.104-0.672,2.232-0.925,3.383
		c5.398-2.851,10.4-4.116,14.45-4.654C23.331,22.698,27.699,24.238,27.768,24.169z"/>
	<path fill="#231F20" d="M46.537,45.837c8.818,2.739,19.221-2.365,24.898-6.026c0.121-1.15,0.188-2.316,0.195-3.496
		c-4.682,3.903-9.307,6.174-13.15,7.538C51.178,46.359,46.591,45.757,46.537,45.837z"/>
	<path fill="#231F20" d="M25.486,26.141c-8.83-2.73-19.242,2.379-24.921,6.046c-0.122,1.152-0.187,2.319-0.196,3.5
		c4.686-3.91,9.312-6.184,13.161-7.552C20.839,25.624,25.433,26.221,25.486,26.141z"/>
	<path fill="#231F20" d="M59.622,39.01c-6.624,3.968-11.236,4.33-11.271,4.42c9.198,0.842,18.319-6.31,23.106-11.073
		c-0.121-1.174-0.299-2.332-0.528-3.47C67.155,33.686,63.103,36.873,59.622,39.01z"/>
	<path fill="#231F20" d="M12.384,32.976c6.63-3.975,11.246-4.343,11.281-4.433c-9.207-0.837-18.331,6.331-23.121,11.099
		c0.117,1.176,0.297,2.332,0.526,3.472C4.847,38.309,8.903,35.118,12.384,32.976z"/>
	<path fill="#231F20" d="M59.733,34.033c-5.657,5.257-10.09,6.573-10.108,6.667c9.172-1.086,16.604-9.981,20.297-15.635
		c-0.358-1.119-0.771-2.213-1.237-3.281C65.993,27.26,62.69,31.219,59.733,34.033z"/>
	<path fill="#231F20" d="M12.271,37.953c5.659-5.266,10.097-6.59,10.113-6.684c-9.181,1.098-16.613,10.004-20.31,15.665
		c0.36,1.12,0.775,2.214,1.241,3.286C6.008,44.736,9.312,40.771,12.271,37.953z"/>
</g>
</svg>
